# xmcd CD database file
#
# Track frame offsets:
#	150
#	8902
#	22506
#	32893
#	47638
#	57375
#	66468
#	77513
#	85444
#	94226
#	109270
#	121490
#	132995
#	145805
#
# Disc length: 2069 seconds
#
# Revision: 0
# Processed by: cddbd v1.5.2PL0 Copyright (c) Steve Scherf et al.
# Submitted via: CDex 1.70beta2
#
DISCID=bc08130e
DTITLE=Ralph Stanley - King Recordings
DYEAR=1969
DGENRE=Country
TTITLE0=Hills of Home
TTITLE1=Hemlock and Primroses
TTITLE2=Wonderful World Outside
TTITLE3=Love Please Stay
TTITLE4=Darling Brown Eyes
TTITLE5=My Long Skinny Lanky Sarah Jane
TTITLE6=Midnight Storn
TTITLE7=Dark Hollow
TTITLE8=The Kitten and the Cat
TTITLE9=I Only Exist
TTITLE10=Medicine Springs
TTITLE11=Going Up Home to Live in Green Pastures
TTITLE12=Snow Covered Mound
TTITLE13=I Wanna Go Home
EXTD=YEAR: 1969
EXTT0=
EXTT1=
EXTT2=
EXTT3=
EXTT4=
EXTT5=
EXTT6=
EXTT7=
EXTT8=
EXTT9=
EXTT10=
EXTT11=
EXTT12=
EXTT13=
PLAYORDER=
